<svg width="72" height="72" viewBox="0 0 72 72" fill="none" xmlns="http://www.w3.org/2000/svg">
<path fill-rule="evenodd" clip-rule="evenodd" d="M37.4507 6C40.8497 6 58.6847 12.123 61.0457 14.484C63.0137 16.452 62.9837 18.042 62.8457 25.662C62.7917 28.716 62.7167 32.877 62.7167 38.637C62.7167 59.283 39.1067 66.669 38.1017 66.972C37.8887 67.038 37.6697 67.068 37.4507 67.068C37.2317 67.068 37.0127 67.038 36.7997 66.972C35.7947 66.669 12.1847 59.283 12.1847 38.637C12.1847 32.886 12.1097 28.725 12.0557 25.671C12.0311 24.3087 12.0099 23.1389 12.0029 22.1252L12.0021 20.9813C12.0278 17.2234 12.3805 15.96 13.8587 14.484C16.2137 12.123 34.0487 6 37.4507 6ZM37.4507 10.5C34.9067 10.5 18.8567 16.152 17.0057 17.697C16.4597 18.246 16.4387 19.2 16.5557 25.587C16.6097 28.665 16.6847 32.847 16.6847 38.637C16.6847 54.24 33.8507 61.167 37.4477 62.442C41.0417 61.161 58.2167 54.195 58.2167 38.637C58.2167 32.841 58.2917 28.656 58.3487 25.578C58.4627 19.197 58.4417 18.243 57.8627 17.667C56.0477 16.152 39.9947 10.5 37.4507 10.5ZM48.6152 28.0185C49.4942 28.8975 49.4942 30.3225 48.6152 31.2015L36.9212 42.8985C36.5852 43.2369 36.1513 43.4563 35.6855 43.5305L35.3312 43.5585C34.7342 43.5585 34.1612 43.3215 33.7382 42.8985L28.0622 37.2165C27.1862 36.3375 27.1862 34.9095 28.0652 34.0335C28.9412 33.1545 30.3692 33.1545 31.2482 34.0335L35.3312 38.1225L45.4352 28.0185C46.3142 27.1395 47.7362 27.1395 48.6152 28.0185Z" fill="#FE8235"/>
</svg>
